HIERARCHY
ROOT Hips
{
  OFFSET 0.000 62.277 0.000
  CHANNELS 6 Xposition Yposition Zposition Zrotation Xrotation Yrotation
  JOINT LeftUpLeg
  {
    OFFSET 7.205 0.239 2.602
    CHANNELS 6 Xposition Yposition Zposition Zrotation Xrotation Yrotation
    JOINT LeftLeg
    {
      OFFSET 0.000 -29.642 0.000
      CHANNELS 6 Xposition Yposition Zposition Zrotation Xrotation Yrotation
      JOINT LeftFoot
      {
        OFFSET 0.000 -32.874 0.000
        CHANNELS 6 Xposition Yposition Zposition Zrotation Xrotation Yrotation
        End Site
        {
          OFFSET 0.000 0.000 9.083
        }
      }
    }
  }
  JOINT RightUpLeg
  {
    OFFSET -7.205 0.239 2.602
    CHANNELS 6 Xposition Yposition Zposition Zrotation Xrotation Yrotation
    JOINT RightLeg
    {
      OFFSET 0.000 -29.642 0.000
      CHANNELS 6 Xposition Yposition Zposition Zrotation Xrotation Yrotation
      JOINT RightFoot
      {
        OFFSET 0.000 -32.874 0.000
        CHANNELS 6 Xposition Yposition Zposition Zrotation Xrotation Yrotation
        End Site
        {
          OFFSET 0.000 0.000 9.083
        }
      }
    }
  }
  JOINT Spine
  {
    OFFSET 0.000 24.999 0.000
    CHANNELS 6 Xposition Yposition Zposition Zrotation Xrotation Yrotation
    JOINT Spine1
    {
      OFFSET 0.000 18.575 0.000
      CHANNELS 6 Xposition Yposition Zposition Zrotation Xrotation Yrotation
      JOINT LeftShoulder
      {
        OFFSET 1.724 -0.307 0.046
        CHANNELS 6 Xposition Yposition Zposition Zrotation Xrotation Yrotation
        JOINT LeftArm
        {
          OFFSET 15.442 0.000 0.000
          CHANNELS 6 Xposition Yposition Zposition Zrotation Xrotation Yrotation
          JOINT LeftForeArm
          {
            OFFSET 24.534 0.000 0.000
            CHANNELS 6 Xposition Yposition Zposition Zrotation Xrotation Yrotation
            JOINT LeftHand
            {
              OFFSET 18.605 0.000 0.000
              CHANNELS 6 Xposition Yposition Zposition Zrotation Xrotation Yrotation
              JOINT LeftHandThumb1
              {
                OFFSET 4.877 -1.044 3.608
                CHANNELS 6 Xposition Yposition Zposition Zrotation Xrotation Yrotation
                JOINT LeftHandThumb2
                {
                  OFFSET 2.665 0.000 0.000
                  CHANNELS 6 Xposition Yposition Zposition Zrotation Xrotation Yrotation
                  JOINT LeftHandThumb3
                  {
                    OFFSET 2.543 -0.000 0.000
                    CHANNELS 6 Xposition Yposition Zposition Zrotation Xrotation Yrotation
                    End Site
                    {
                      OFFSET 2.667 -0.000 -0.000
                    }
                  }
                }
              }
              JOINT LeftHandIndex1
              {
                OFFSET 9.232 -0.301 2.144
                CHANNELS 6 Xposition Yposition Zposition Zrotation Xrotation Yrotation
                JOINT LeftHandIndex2
                {
                  OFFSET 4.225 0.000 -0.000
                  CHANNELS 6 Xposition Yposition Zposition Zrotation Xrotation Yrotation
                  JOINT LeftHandIndex3
                  {
                    OFFSET 2.654 0.000 0.000
                    CHANNELS 6 Xposition Yposition Zposition Zrotation Xrotation Yrotation
                    End Site
                    {
                      OFFSET 1.958 -0.000 -0.000
                    }
                  }
                }
              }
              JOINT LeftHandMiddle1
              {
                OFFSET 8.920 0.000 -0.000
                CHANNELS 6 Xposition Yposition Zposition Zrotation Xrotation Yrotation
                JOINT LeftHandMiddle2
                {
                  OFFSET 4.863 -0.000 -0.000
                  CHANNELS 6 Xposition Yposition Zposition Zrotation Xrotation Yrotation
                  JOINT LeftHandMiddle3
                  {
                    OFFSET 2.765 0.000 0.000
                    CHANNELS 6 Xposition Yposition Zposition Zrotation Xrotation Yrotation
                    End Site
                    {
                      OFFSET 2.006 -0.000 0.000
                    }
                  }
                }
              }
              JOINT LeftHandRing1
              {
                OFFSET 8.689 -0.126 -2.087
                CHANNELS 6 Xposition Yposition Zposition Zrotation Xrotation Yrotation
                JOINT LeftHandRing2
                {
                  OFFSET 4.538 0.000 0.000
                  CHANNELS 6 Xposition Yposition Zposition Zrotation Xrotation Yrotation
                  JOINT LeftHandRing3
                  {
                    OFFSET 2.305 -0.000 -0.000
                    CHANNELS 6 Xposition Yposition Zposition Zrotation Xrotation Yrotation
                    End Site
                    {
                      OFFSET 1.923 0.000 0.000
                    }
                  }
                }
              }
              JOINT LeftHandPinky1
              {
                OFFSET 8.391 -0.817 -3.758
                CHANNELS 6 Xposition Yposition Zposition Zrotation Xrotation Yrotation
                JOINT LeftHandPinky2
                {
                  OFFSET 3.044 0.000 0.000
                  CHANNELS 6 Xposition Yposition Zposition Zrotation Xrotation Yrotation
                  JOINT LeftHandPinky3
                  {
                    OFFSET 1.975 -0.000 -0.000
                    CHANNELS 6 Xposition Yposition Zposition Zrotation Xrotation Yrotation
                    End Site
                    {
                      OFFSET 1.667 -0.000 -0.000
                    }
                  }
                }
              }
            }
          }
        }
      }
      JOINT RightShoulder
      {
        OFFSET -1.724 -0.307 0.046
        CHANNELS 6 Xposition Yposition Zposition Zrotation Xrotation Yrotation
        JOINT RightArm
        {
          OFFSET -15.442 0.000 0.000
          CHANNELS 6 Xposition Yposition Zposition Zrotation Xrotation Yrotation
          JOINT RightForeArm
          {
            OFFSET -24.534 0.000 0.000
            CHANNELS 6 Xposition Yposition Zposition Zrotation Xrotation Yrotation
            JOINT RightHand
            {
              OFFSET -18.605 0.000 0.000
              CHANNELS 6 Xposition Yposition Zposition Zrotation Xrotation Yrotation
              JOINT RightHandThumb1
              {
                OFFSET -4.877 -1.044 3.608
                CHANNELS 6 Xposition Yposition Zposition Zrotation Xrotation Yrotation
                JOINT RightHandThumb2
                {
                  OFFSET -2.665 0.000 0.000
                  CHANNELS 6 Xposition Yposition Zposition Zrotation Xrotation Yrotation
                  JOINT RightHandThumb3
                  {
                    OFFSET -2.543 0.000 0.000
                    CHANNELS 6 Xposition Yposition Zposition Zrotation Xrotation Yrotation
                    End Site
                    {
                      OFFSET -2.667 0.000 0.000
                    }
                  }
                }
              }
              JOINT RightHandIndex1
              {
                OFFSET -9.232 -0.301 2.144
                CHANNELS 6 Xposition Yposition Zposition Zrotation Xrotation Yrotation
                JOINT RightHandIndex2
                {
                  OFFSET -4.225 0.000 0.000
                  CHANNELS 6 Xposition Yposition Zposition Zrotation Xrotation Yrotation
                  JOINT RightHandIndex3
                  {
                    OFFSET -2.654 -0.000 0.000
                    CHANNELS 6 Xposition Yposition Zposition Zrotation Xrotation Yrotation
                    End Site
                    {
                      OFFSET -1.958 0.000 -0.000
                    }
                  }
                }
              }
              JOINT RightHandMiddle1
              {
                OFFSET -8.920 -0.000 0.000
                CHANNELS 6 Xposition Yposition Zposition Zrotation Xrotation Yrotation
                JOINT RightHandMiddle2
                {
                  OFFSET -4.863 0.000 0.000
                  CHANNELS 6 Xposition Yposition Zposition Zrotation Xrotation Yrotation
                  JOINT RightHandMiddle3
                  {
                    OFFSET -2.765 0.000 -0.000
                    CHANNELS 6 Xposition Yposition Zposition Zrotation Xrotation Yrotation
                    End Site
                    {
                      OFFSET -2.006 -0.000 0.000
                    }
                  }
                }
              }
              JOINT RightHandRing1
              {
                OFFSET -8.689 -0.126 -2.087
                CHANNELS 6 Xposition Yposition Zposition Zrotation Xrotation Yrotation
                JOINT RightHandRing2
                {
                  OFFSET -4.538 0.000 -0.000
                  CHANNELS 6 Xposition Yposition Zposition Zrotation Xrotation Yrotation
                  JOINT RightHandRing3
                  {
                    OFFSET -2.305 0.000 -0.000
                    CHANNELS 6 Xposition Yposition Zposition Zrotation Xrotation Yrotation
                    End Site
                    {
                      OFFSET -1.923 0.000 0.000
                    }
                  }
                }
              }
              JOINT RightHandPinky1
              {
                OFFSET -8.391 -0.817 -3.758
                CHANNELS 6 Xposition Yposition Zposition Zrotation Xrotation Yrotation
                JOINT RightHandPinky2
                {
                  OFFSET -3.044 0.000 0.000
                  CHANNELS 6 Xposition Yposition Zposition Zrotation Xrotation Yrotation
                  JOINT RightHandPinky3
                  {
                    OFFSET -1.975 0.000 0.000
                    CHANNELS 6 Xposition Yposition Zposition Zrotation Xrotation Yrotation
                    End Site
                    {
                      OFFSET -1.667 0.000 -0.000
                    }
                  }
                }
              }
            }
          }
        }
      }
      JOINT Neck
      {
        OFFSET 0.000 0.616 0.000
        CHANNELS 6 Xposition Yposition Zposition Zrotation Xrotation Yrotation
        JOINT Head
        {
          OFFSET 0.000 5.807 0.000
          CHANNELS 6 Xposition Yposition Zposition Zrotation Xrotation Yrotation
          End Site
          {
            OFFSET 0.000 11.990 0.000
          }
        }
      }
    }
  }
}
MOTION
Frames:	4
Frame Time:	0.033333
52.95337 -28.59443 -409.01581 -1.69726 -0.10944 -12.13248 7.31185 0.29929 3.07152 12.38015 -18.59479 6.52991 -0.02654 -28.23070 -0.07472 -3.94556 24.54856 -3.33736 -0.00541 -38.78978 0.02728 -0.19288 17.80626 0.65104 -6.83861 0.00185 3.07561 -8.32589 -17.00856 -13.85762 -0.00242 -27.35682 0.00492 1.77507 23.39540 14.01548 -0.05329 -35.40143 -0.05083 -1.98828 23.97436 4.35697 -0.00093 24.67942 0.00386 0.05136 1.91587 0.73184 -0.00235 18.26048 0.00863 -0.32209 2.59186 0.79825 1.71402 -0.34089 0.07697 -10.90425 0.44909 -2.32094 15.70708 0.01946 -0.00035 -49.50369 -1.73371 -2.61128 25.86234 0.00037 0.00292 6.01110 1.83496 -24.04301 22.30866 0.01243 0.00427 -9.62417 22.04402 -5.23754 4.87701 -1.04400 3.60796 0.00000 0.00000 -0.00000 2.66502 0.00001 0.00002 0.00000 0.00000 -0.00000 2.54300 -0.00001 0.00000 0.00000 0.00000 -0.00000 9.23201 -0.30099 2.14398 0.00000 0.00000 -0.00000 4.22500 0.00000 -0.00002 0.00000 0.00000 -0.00000 2.65400 0.00001 0.00000 0.00000 0.00000 -0.00000 8.92003 0.00001 -0.00005 0.00000 0.00000 -0.00000 4.86299 -0.00002 -0.00002 0.00000 0.00000 -0.00000 2.76499 0.00001 0.00000 0.00000 0.00000 -0.00000 8.68903 -0.12600 -2.08702 0.00000 0.00000 -0.00000 4.53802 0.00001 0.00002 0.00000 0.00000 -0.00000 2.30500 -0.00001 -0.00005 0.00000 0.00000 -0.00000 8.39101 -0.81700 -3.75803 0.00000 0.00000 -0.00000 3.04399 0.00000 0.00000 0.00000 0.00000 -0.00000 1.97501 -0.00001 -0.00002 0.00000 0.00000 -0.00000 -1.59109 -0.49334 0.08428 16.51757 0.72102 2.42972 -14.94069 -0.00446 0.00081 55.11903 -2.47266 1.09645 -27.34803 -0.00602 -0.00029 -2.08680 -3.90023 23.09266 -22.20868 0.00437 0.00804 11.30944 -0.81527 -33.34182 -4.87700 -1.04401 3.60804 24.66570 4.20854 9.07947 -2.66499 0.00000 0.00000 0.00000 0.00000 -10.00000 -2.54302 0.00000 0.00002 -0.00000 -0.00000 -15.00000 -9.23201 -0.30101 2.14403 20.00001 -0.00000 0.00000 -4.22502 0.00000 0.00000 24.99999 -0.00001 0.00000 -2.65399 -0.00002 0.00002 29.90551 2.49762 4.33287 -8.91999 -0.00001 0.00002 20.00001 -0.00000 0.00000 -4.86302 0.00000 0.00002 24.99999 -0.00001 0.00000 -2.76499 0.00000 -0.00002 29.90551 2.49762 4.33287 -8.68900 -0.12601 -2.08695 20.00001 -0.00000 0.00000 -4.53801 0.00001 -0.00002 24.99999 -0.00001 0.00000 -2.30501 0.00001 -0.00005 29.90551 2.49762 4.33287 -8.39100 -0.81701 -3.75795 20.00001 -0.00000 0.00000 -3.04402 0.00001 0.00000 24.99999 -0.00001 0.00000 -1.97501 0.00000 0.00000 29.90551 2.49762 4.33287 -0.00002 0.61262 0.00005 0.00002 -0.00018 -0.00001 -0.00409 5.41136 0.00157 4.25295 1.05090 -5.88875 
53.03640 -28.58321 -408.81790 -1.56601 -0.35625 -12.19173 7.36737 0.31182 3.07152 11.65432 -18.29826 5.88887 -0.01304 -28.02790 -0.05703 -3.58776 24.35126 -2.83101 -0.00541 -39.04011 0.02017 -0.16453 17.11567 0.58016 -6.86747 -0.00827 3.07561 -8.89509 -16.69053 -14.31183 -0.00242 -27.34657 0.00492 2.49240 22.73590 14.22684 -0.04924 -34.59690 -0.05402 -1.53540 21.95056 3.58401 -0.00093 24.62213 0.00386 -0.07905 2.00835 0.72834 -0.00235 18.24370 0.00863 -0.33268 2.60141 0.78559 1.71215 -0.34089 0.07697 -10.92708 0.43935 -2.27604 15.69166 0.01525 -0.00035 -49.44538 -1.41787 -2.65600 25.75060 0.00037 0.00292 5.07910 1.95237 -23.91822 22.30227 -0.00218 0.00427 -10.15354 20.05494 3.96348 4.87701 -1.04400 3.60796 0.00000 0.00000 -0.00000 2.66502 0.00001 0.00002 0.00000 0.00000 -0.00000 2.54300 -0.00001 0.00000 0.00000 0.00000 -0.00000 9.23201 -0.30099 2.14398 0.00000 0.00000 -0.00000 4.22500 0.00000 -0.00002 0.00000 0.00000 -0.00000 2.65400 0.00001 0.00000 0.00000 0.00000 -0.00000 8.92003 0.00001 -0.00005 0.00000 0.00000 -0.00000 4.86299 -0.00002 -0.00002 0.00000 0.00000 -0.00000 2.76499 0.00001 0.00000 0.00000 0.00000 -0.00000 8.68903 -0.12600 -2.08702 0.00000 0.00000 -0.00000 4.53802 0.00001 0.00002 0.00000 0.00000 -0.00000 2.30500 -0.00001 -0.00005 0.00000 0.00000 -0.00000 8.39101 -0.81700 -3.75803 0.00000 0.00000 -0.00000 3.04399 0.00000 0.00000 0.00000 0.00000 -0.00000 1.97501 -0.00001 -0.00002 0.00000 0.00000 -0.00000 -1.59109 -0.48777 0.08428 16.46360 0.70154 2.38138 -14.94069 -0.00446 0.00081 55.05378 -2.40609 1.04555 -27.33842 -0.00602 -0.00029 -2.16487 -3.95106 23.15102 -22.20868 0.00437 0.00804 6.25449 -4.03667 -34.85485 -4.87700 -1.04401 3.60804 24.66570 4.20854 9.07947 -2.66499 0.00000 0.00000 0.00000 0.00000 -10.00000 -2.54302 0.00000 0.00002 -0.00000 -0.00000 -15.00000 -9.23201 -0.30101 2.14403 20.00001 -0.00000 0.00000 -4.22502 0.00000 0.00000 24.99999 -0.00001 0.00000 -2.65399 -0.00002 0.00002 29.90551 2.49762 4.33287 -8.91999 -0.00001 0.00002 20.00001 -0.00000 0.00000 -4.86302 0.00000 0.00002 24.99999 -0.00001 0.00000 -2.76499 0.00000 -0.00002 29.90551 2.49762 4.33287 -8.68900 -0.12601 -2.08695 20.00001 -0.00000 0.00000 -4.53801 0.00001 -0.00002 24.99999 -0.00001 0.00000 -2.30501 0.00001 -0.00005 29.90551 2.49762 4.33287 -8.39100 -0.81701 -3.75795 20.00001 -0.00000 0.00000 -3.04402 0.00001 0.00000 24.99999 -0.00001 0.00000 -1.97501 0.00000 0.00000 29.90551 2.49762 4.33287 -0.00002 0.61262 0.00005 0.00002 -0.00018 -0.00001 -0.00409 5.41597 0.00157 4.29357 1.22681 -5.73146 
53.14491 -28.45456 -408.69543 -1.45447 -0.45343 -12.24075 7.38697 0.33107 3.07152 10.95452 -17.79745 5.28769 -0.00206 -27.87304 -0.03956 -3.24346 23.81898 -2.36355 -0.00541 -39.20508 0.01495 -0.15678 16.67244 0.56811 -6.86865 -0.01163 3.07561 -9.35081 -16.24925 -14.70275 -0.00242 -27.32081 0.00492 2.45262 22.14949 15.26684 -0.06360 -36.00390 -0.01476 -4.34029 25.76596 8.51991 -0.00093 24.60219 0.00386 -0.13779 2.03563 0.74981 -0.00235 18.24321 0.00863 -0.31881 2.59644 0.79551 1.70482 -0.33901 0.07697 -11.02725 0.45930 -2.35796 15.63034 0.01005 -0.00035 -49.44342 -1.18174 -2.60115 25.72920 0.00037 0.00292 4.42125 2.03533 -23.72358 22.29498 -0.00888 0.00427 -10.04968 18.29082 11.32164 4.87701 -1.04400 3.60796 0.00000 0.00000 -0.00000 2.66502 0.00001 0.00002 0.00000 0.00000 -0.00000 2.54300 -0.00001 0.00000 0.00000 0.00000 -0.00000 9.23201 -0.30099 2.14398 0.00000 0.00000 -0.00000 4.22500 0.00000 -0.00002 0.00000 0.00000 -0.00000 2.65400 0.00001 0.00000 0.00000 0.00000 -0.00000 8.92003 0.00001 -0.00005 0.00000 0.00000 -0.00000 4.86299 -0.00002 -0.00002 0.00000 0.00000 -0.00000 2.76499 0.00001 0.00000 0.00000 0.00000 -0.00000 8.68903 -0.12600 -2.08702 0.00000 0.00000 -0.00000 4.53802 0.00001 0.00002 0.00000 0.00000 -0.00000 2.30500 -0.00001 -0.00005 0.00000 0.00000 -0.00000 8.39101 -0.81700 -3.75803 0.00000 0.00000 -0.00000 3.04399 0.00000 0.00000 0.00000 0.00000 -0.00000 1.97501 -0.00001 -0.00002 0.00000 0.00000 -0.00000 -1.59109 -0.47485 0.08428 16.20648 0.71074 2.45699 -14.95226 -0.00446 0.00081 55.10411 -2.35343 0.86318 -27.27376 -0.00240 -0.00029 -2.09671 -3.91061 23.06491 -22.20666 0.00437 0.00804 42.07917 13.52710 -36.93069 -4.87700 -1.04401 3.60804 24.66570 4.20854 9.07947 -2.66499 0.00000 0.00000 0.00000 0.00000 -10.00000 -2.54302 0.00000 0.00002 -0.00000 -0.00000 -15.00000 -9.23201 -0.30101 2.14403 20.00001 -0.00000 0.00000 -4.22502 0.00000 0.00000 24.99999 -0.00001 0.00000 -2.65399 -0.00002 0.00002 29.90551 2.49762 4.33287 -8.91999 -0.00001 0.00002 20.00001 -0.00000 0.00000 -4.86302 0.00000 0.00002 24.99999 -0.00001 0.00000 -2.76499 0.00000 -0.00002 29.90551 2.49762 4.33287 -8.68900 -0.12601 -2.08695 20.00001 -0.00000 0.00000 -4.53801 0.00001 -0.00002 24.99999 -0.00001 0.00000 -2.30501 0.00001 -0.00005 29.90551 2.49762 4.33287 -8.39100 -0.81701 -3.75795 20.00001 -0.00000 0.00000 -3.04402 0.00001 0.00000 24.99999 -0.00001 0.00000 -1.97501 0.00000 0.00000 29.90551 2.49762 4.33287 -0.00002 0.61262 0.00005 0.00002 -0.00018 -0.00001 -0.00409 5.42367 0.00157 4.13389 1.28408 -5.85553 
53.14809 -28.22375 -408.67087 -1.46932 -0.43533 -12.24495 7.40849 0.31082 3.07152 10.82613 -17.34728 5.10132 -0.00046 -27.75520 -0.02418 -3.11459 23.14289 -2.25766 -0.00463 -39.33034 0.01241 -0.13515 16.39808 0.50072 -6.89234 0.04741 3.07561 -9.09388 -15.66217 -14.70209 -0.00242 -27.28487 0.00492 2.43407 21.91781 15.42119 -0.04604 -35.82388 -0.01288 -2.96104 30.48378 5.50922 -0.00093 24.57518 0.00386 -0.14404 2.02109 0.70569 -0.00235 18.24080 0.00863 -0.29788 2.58620 0.76315 1.69877 -0.33174 0.07697 -10.91296 0.49327 -2.56303 15.57516 0.00550 -0.00035 -49.58416 -1.08335 -2.46215 25.78021 0.00037 0.00292 3.88864 2.15818 -23.35583 22.28627 -0.00814 0.00427 -11.31252 18.11251 16.06843 4.87701 -1.04400 3.60796 0.00000 0.00000 -0.00000 2.66502 0.00001 0.00002 0.00000 0.00000 -0.00000 2.54300 -0.00001 0.00000 0.00000 0.00000 -0.00000 9.23201 -0.30099 2.14398 0.00000 0.00000 -0.00000 4.22500 0.00000 -0.00002 0.00000 0.00000 -0.00000 2.65400 0.00001 0.00000 0.00000 0.00000 -0.00000 8.92003 0.00001 -0.00005 0.00000 0.00000 -0.00000 4.86299 -0.00002 -0.00002 0.00000 0.00000 -0.00000 2.76499 0.00001 0.00000 0.00000 0.00000 -0.00000 8.68903 -0.12600 -2.08702 0.00000 0.00000 -0.00000 4.53802 0.00001 0.00002 0.00000 0.00000 -0.00000 2.30500 -0.00001 -0.00005 0.00000 0.00000 -0.00000 8.39101 -0.81700 -3.75803 0.00000 0.00000 -0.00000 3.04399 0.00000 0.00000 0.00000 0.00000 -0.00000 1.97501 -0.00001 -0.00002 0.00000 0.00000 -0.00000 -1.59629 -0.46448 0.08428 16.00805 0.75854 2.65480 -14.98484 -0.00446 0.00081 54.77056 -1.82227 0.68086 -26.88260 0.00711 -0.00029 -0.99579 -3.52101 22.28307 -22.18624 0.00437 0.00804 52.39930 20.83221 -44.65328 -4.87700 -1.04401 3.60804 24.66570 4.20854 9.07947 -2.66499 0.00000 0.00000 0.00000 0.00000 -10.00000 -2.54302 0.00000 0.00002 -0.00000 -0.00000 -15.00000 -9.23201 -0.30101 2.14403 20.00001 -0.00000 0.00000 -4.22502 0.00000 0.00000 24.99999 -0.00001 0.00000 -2.65399 -0.00002 0.00002 29.90551 2.49762 4.33287 -8.91999 -0.00001 0.00002 20.00001 -0.00000 0.00000 -4.86302 0.00000 0.00002 24.99999 -0.00001 0.00000 -2.76499 0.00000 -0.00002 29.90551 2.49762 4.33287 -8.68900 -0.12601 -2.08695 20.00001 -0.00000 0.00000 -4.53801 0.00001 -0.00002 24.99999 -0.00001 0.00000 -2.30501 0.00001 -0.00005 29.90551 2.49762 4.33287 -8.39100 -0.81701 -3.75795 20.00001 -0.00000 0.00000 -3.04402 0.00001 0.00000 24.99999 -0.00001 0.00000 -1.97501 0.00000 0.00000 29.90551 2.49762 4.33287 -0.00002 0.61262 0.00005 0.00002 -0.00018 -0.00001 -0.00409 5.43168 0.00157 3.99133 1.39141 -6.24940 
